<mxfile host="Electron" agent="Mozilla/5.0 (Macintosh; Intel Mac OS X 10_15_7) AppleWebKit/537.36 (KHTML, like Gecko) draw.io/28.1.2 Chrome/138.0.7204.243 Electron/37.4.0 Safari/537.36" version="28.1.2">
  <diagram name="Page-1" id="2wuB2iruMtVq6wPyK6io">
    <mxGraphModel dx="1234" dy="912" grid="1" gridSize="10" guides="1" tooltips="1" connect="1" arrows="1" fold="1" page="1" pageScale="1" pageWidth="850" pageHeight="1100" math="0" shadow="0">
      <root>
        <mxCell id="0" />
        <mxCell id="1" parent="0" />
        <mxCell id="14xVmfqpKcjOKhDIpTF0-22" value="&lt;strong style=&quot;color: rgb(59, 59, 59); font-family: -apple-system, &amp;quot;system-ui&amp;quot;, &amp;quot;Segoe UI&amp;quot;, Roboto, sans-serif; font-size: 13px; background-color: rgb(248, 248, 248);&quot;&gt;Agent 3 (RISK-ASSESS)&lt;/strong&gt;" style="rounded=0;whiteSpace=wrap;html=1;align=left;verticalAlign=top;" vertex="1" parent="1">
          <mxGeometry x="100" y="550" width="610" height="80" as="geometry" />
        </mxCell>
        <mxCell id="14xVmfqpKcjOKhDIpTF0-17" value="&lt;strong style=&quot;color: rgb(59, 59, 59); font-family: -apple-system, &amp;quot;system-ui&amp;quot;, &amp;quot;Segoe UI&amp;quot;, Roboto, sans-serif; font-size: 13px; font-style: normal; font-variant-ligatures: normal; font-variant-caps: normal; letter-spacing: normal; orphans: 2; text-indent: 0px; text-transform: none; widows: 2; word-spacing: 0px; -webkit-text-stroke-width: 0px; white-space: normal; background-color: rgb(248, 248, 248); text-decoration-thickness: initial; text-decoration-style: initial; text-decoration-color: initial;&quot;&gt;Agent 2 (DIRECT-CHECK)&lt;/strong&gt;" style="rounded=0;whiteSpace=wrap;html=1;align=left;verticalAlign=top;" vertex="1" parent="1">
          <mxGeometry x="100" y="430" width="610" height="80" as="geometry" />
        </mxCell>
        <mxCell id="14xVmfqpKcjOKhDIpTF0-16" value="" style="rounded=0;whiteSpace=wrap;html=1;" vertex="1" parent="1">
          <mxGeometry x="90" y="160" width="620" height="250" as="geometry" />
        </mxCell>
        <mxCell id="14xVmfqpKcjOKhDIpTF0-6" value="" style="edgeStyle=orthogonalEdgeStyle;rounded=0;orthogonalLoop=1;jettySize=auto;html=1;" edge="1" parent="1" source="14xVmfqpKcjOKhDIpTF0-1" target="14xVmfqpKcjOKhDIpTF0-2">
          <mxGeometry relative="1" as="geometry" />
        </mxCell>
        <mxCell id="14xVmfqpKcjOKhDIpTF0-1" value="Provide document" style="rounded=0;whiteSpace=wrap;html=1;" vertex="1" parent="1">
          <mxGeometry x="330" y="80" width="120" height="60" as="geometry" />
        </mxCell>
        <mxCell id="14xVmfqpKcjOKhDIpTF0-7" value="" style="edgeStyle=orthogonalEdgeStyle;rounded=0;orthogonalLoop=1;jettySize=auto;html=1;" edge="1" parent="1" source="14xVmfqpKcjOKhDIpTF0-2" target="14xVmfqpKcjOKhDIpTF0-3">
          <mxGeometry relative="1" as="geometry" />
        </mxCell>
        <mxCell id="14xVmfqpKcjOKhDIpTF0-2" value="Indetify params to anonymize" style="rounded=0;whiteSpace=wrap;html=1;" vertex="1" parent="1">
          <mxGeometry x="330" y="200" width="120" height="60" as="geometry" />
        </mxCell>
        <mxCell id="14xVmfqpKcjOKhDIpTF0-8" value="" style="edgeStyle=orthogonalEdgeStyle;rounded=0;orthogonalLoop=1;jettySize=auto;html=1;" edge="1" parent="1" source="14xVmfqpKcjOKhDIpTF0-3" target="14xVmfqpKcjOKhDIpTF0-4">
          <mxGeometry relative="1" as="geometry" />
        </mxCell>
        <mxCell id="14xVmfqpKcjOKhDIpTF0-3" value="replace for placeholder" style="rounded=0;whiteSpace=wrap;html=1;" vertex="1" parent="1">
          <mxGeometry x="330" y="320" width="120" height="60" as="geometry" />
        </mxCell>
        <mxCell id="14xVmfqpKcjOKhDIpTF0-9" value="" style="edgeStyle=orthogonalEdgeStyle;rounded=0;orthogonalLoop=1;jettySize=auto;html=1;" edge="1" parent="1" source="14xVmfqpKcjOKhDIpTF0-4" target="14xVmfqpKcjOKhDIpTF0-5">
          <mxGeometry relative="1" as="geometry" />
        </mxCell>
        <mxCell id="14xVmfqpKcjOKhDIpTF0-4" value="verify anonymization" style="rounded=0;whiteSpace=wrap;html=1;" vertex="1" parent="1">
          <mxGeometry x="330" y="440" width="120" height="60" as="geometry" />
        </mxCell>
        <mxCell id="14xVmfqpKcjOKhDIpTF0-5" value="provide assesment" style="rounded=0;whiteSpace=wrap;html=1;" vertex="1" parent="1">
          <mxGeometry x="330" y="560" width="120" height="60" as="geometry" />
        </mxCell>
        <mxCell id="14xVmfqpKcjOKhDIpTF0-14" style="edgeStyle=orthogonalEdgeStyle;rounded=0;orthogonalLoop=1;jettySize=auto;html=1;entryX=1;entryY=0.5;entryDx=0;entryDy=0;endArrow=none;endFill=0;" edge="1" parent="1" source="14xVmfqpKcjOKhDIpTF0-12" target="14xVmfqpKcjOKhDIpTF0-2">
          <mxGeometry relative="1" as="geometry" />
        </mxCell>
        <mxCell id="14xVmfqpKcjOKhDIpTF0-12" value="&lt;h1 style=&quot;margin-top: 0px;&quot;&gt;&lt;span style=&quot;background-color: transparent; color: light-dark(rgb(0, 0, 0), rgb(255, 255, 255));&quot;&gt;Call To LLM&lt;/span&gt;&lt;/h1&gt;&lt;div&gt;&lt;span style=&quot;background-color: transparent; color: light-dark(rgb(0, 0, 0), rgb(255, 255, 255));&quot;&gt;make a list of params to anonymize&lt;/span&gt;&lt;/div&gt;" style="text;html=1;whiteSpace=wrap;overflow=hidden;rounded=0;" vertex="1" parent="1">
          <mxGeometry x="540" y="170" width="180" height="120" as="geometry" />
        </mxCell>
        <mxCell id="14xVmfqpKcjOKhDIpTF0-13" value="&lt;h1 style=&quot;margin-top: 0px;&quot;&gt;&lt;span style=&quot;background-color: transparent; color: light-dark(rgb(0, 0, 0), rgb(255, 255, 255));&quot;&gt;Call To LLM&lt;/span&gt;&lt;/h1&gt;&lt;div&gt;&lt;span style=&quot;background-color: transparent; color: light-dark(rgb(0, 0, 0), rgb(255, 255, 255));&quot;&gt;create anew document with replacemnts&lt;/span&gt;&lt;/div&gt;" style="text;html=1;whiteSpace=wrap;overflow=hidden;rounded=0;" vertex="1" parent="1">
          <mxGeometry x="540" y="290" width="180" height="120" as="geometry" />
        </mxCell>
        <mxCell id="14xVmfqpKcjOKhDIpTF0-15" style="edgeStyle=orthogonalEdgeStyle;rounded=0;orthogonalLoop=1;jettySize=auto;html=1;entryX=1;entryY=0.5;entryDx=0;entryDy=0;endArrow=none;endFill=0;exitX=0;exitY=0.5;exitDx=0;exitDy=0;" edge="1" parent="1" source="14xVmfqpKcjOKhDIpTF0-13" target="14xVmfqpKcjOKhDIpTF0-3">
          <mxGeometry relative="1" as="geometry">
            <mxPoint x="560" y="230" as="sourcePoint" />
            <mxPoint x="470" y="230" as="targetPoint" />
          </mxGeometry>
        </mxCell>
        <mxCell id="14xVmfqpKcjOKhDIpTF0-18" value="Actor" style="shape=umlActor;verticalLabelPosition=bottom;verticalAlign=top;html=1;outlineConnect=0;" vertex="1" parent="1">
          <mxGeometry x="250" y="10" width="30" height="60" as="geometry" />
        </mxCell>
        <mxCell id="14xVmfqpKcjOKhDIpTF0-19" style="edgeStyle=orthogonalEdgeStyle;rounded=0;orthogonalLoop=1;jettySize=auto;html=1;entryX=0.183;entryY=0.017;entryDx=0;entryDy=0;entryPerimeter=0;" edge="1" parent="1" source="14xVmfqpKcjOKhDIpTF0-18" target="14xVmfqpKcjOKhDIpTF0-1">
          <mxGeometry relative="1" as="geometry" />
        </mxCell>
        <mxCell id="14xVmfqpKcjOKhDIpTF0-20" value="&lt;strong style=&quot;color: rgb(59, 59, 59); font-family: -apple-system, &amp;quot;system-ui&amp;quot;, &amp;quot;Segoe UI&amp;quot;, Roboto, sans-serif; font-size: 13px; font-style: normal; font-variant-ligatures: normal; font-variant-caps: normal; letter-spacing: normal; orphans: 2; text-indent: 0px; text-transform: none; widows: 2; word-spacing: 0px; -webkit-text-stroke-width: 0px; white-space: normal; background-color: rgb(248, 248, 248); text-decoration-thickness: initial; text-decoration-style: initial; text-decoration-color: initial;&quot;&gt;Agent 1 (ANON-EXEC)&lt;/strong&gt;" style="text;whiteSpace=wrap;html=1;align=left;" vertex="1" parent="1">
          <mxGeometry x="100" y="170" width="180" height="40" as="geometry" />
        </mxCell>
        <mxCell id="14xVmfqpKcjOKhDIpTF0-24" style="edgeStyle=orthogonalEdgeStyle;rounded=0;orthogonalLoop=1;jettySize=auto;html=1;entryX=0.75;entryY=0;entryDx=0;entryDy=0;" edge="1" parent="1" source="14xVmfqpKcjOKhDIpTF0-23" target="14xVmfqpKcjOKhDIpTF0-1">
          <mxGeometry relative="1" as="geometry" />
        </mxCell>
        <mxCell id="14xVmfqpKcjOKhDIpTF0-23" value="" style="ellipse;shape=cloud;whiteSpace=wrap;html=1;" vertex="1" parent="1">
          <mxGeometry x="490" width="120" height="80" as="geometry" />
        </mxCell>
      </root>
    </mxGraphModel>
  </diagram>
</mxfile>
